<svg id="Capa_1" enable-background="new 0 0 512 512" height="512" viewBox="0 0 512 512" width="512" xmlns="http://www.w3.org/2000/svg"><g><path d="m249.789 143.698h126.211l30-44.406-30-66.424z" fill="#00a66c"/><path d="m376 32.868v110.83h136z" fill="#59c36a"/><path d="m262.211 143.698-126.211-110.83-30 74.95 30 35.88z" fill="#59c36a"/><path d="m136 143.698v-110.83l-136 110.83z" fill="#97de3d"/><path d="m296.811 8.698h-40.811-40.811l-31.448 105 40.728 30h31.531 33.838l38.421-30z" fill="#59c36a"/><path d="m328.259 113.698-31.448-105h-40.811v135h33.838z" fill="#00a66c"/><g><g><g><path d="m80.321 503.302 46.905-140.713 28.447 9.493 55.049 32.49 13.418 26.836z" fill="#59c36a"/></g></g></g><g><path d="m431.679 503.302-143.819-71.894 13.418-26.836 55.049-32.49 28.447-9.493z" fill="#00a66c"/></g><path d="m388.261 143.698-60.002-30h-72.259-72.259l-60.002 30-65.595 186.123 197.856 131.909 197.856-131.909z" fill="#97de3d"/><path d="m388.261 143.698-60.002-30h-72.259v348.032l197.856-131.909z" fill="#59c36a"/></g></svg>