<svg id="Capa_1" enable-background="new 0 0 512 512" height="512" viewBox="0 0 512 512" width="512" xmlns="http://www.w3.org/2000/svg"><g><g><g><g><path d="m437 171c-8.284 0-15-6.716-15-15v-65h-65c-8.284 0-15-6.716-15-15s6.716-15 15-15h80c8.284 0 15 6.716 15 15v80c0 8.284-6.716 15-15 15z" fill="#fff5f5"/></g><path d="m437 171c8.284 0 15-6.716 15-15v-80c0-8.284-6.716-15-15-15h-35v30h20v65c0 8.284 6.716 15 15 15z" fill="#e1ebf0"/><g><path d="m377 181c-8.284 0-15-6.716-15-15v-15h-15c-8.284 0-15-6.716-15-15s6.716-15 15-15h30c8.284 0 15 6.716 15 15v30c0 8.284-6.716 15-15 15z" fill="#fff5f5"/></g></g></g><path d="m220 143.5v-57.5c0-8.284-6.716-15-15-15h-65v-10c0-16.569-13.431-30-30-30-16.569 0-30 13.431-30 30v10h-65c-8.284 0-15 6.716-15 15v190c0 8.284 6.716 15 15 15h190c8.284 0 15-6.716 15-15v-72.5h10c16.569 0 30-13.431 30-30 0-16.569-13.431-30-30-30z" fill="#ffda44"/><g><path d="m230 143.5h-10v-57.5c0-8.284-6.716-15-15-15h-65v-10c0-16.569-13.431-30-30-30v260h95c8.284 0 15-6.716 15-15v-72.5h10c16.569 0 30-13.431 30-30 0-16.569-13.431-30-30-30z" fill="#ff9f22"/></g><g><path d="m140 276v-10c0-16.569-13.431-30-30-30-16.569 0-30 13.431-30 30v10h-80v190c0 8.284 6.716 15 15 15h190c8.284 0 15-6.716 15-15v-57.5h-10c-16.569 0-30-13.431-30-30 0-16.569 13.431-30 30-30h10v-72.5z" fill="#f498c6"/></g><g><path d="m210 348.5h10v-72.5h-80v-10c0-16.569-13.431-30-30-30v245h95c8.284 0 15-6.716 15-15v-57.5h-10c-16.569 0-30-13.431-30-30 0-16.569 13.431-30 30-30z" fill="#df5ccb"/></g><path d="m292 348.5h-10c-16.569 0-30 13.431-30 30 0 16.569 13.431 30 30 30h10v57.5c0 8.284 6.716 15 15 15h190c8.284 0 15-6.716 15-15v-57.5h-10c-16.569 0-30-13.431-30-30 0-16.569 13.431-30 30-30h10v-57.5c0-8.284-6.716-15-15-15h-65v-10c0-16.569-13.431-30-30-30-16.569 0-30 13.431-30 30v10h-65c-8.284 0-15 6.716-15 15z" fill="#44ffe8"/><g><path d="m502 348.5h10v-57.5c0-8.284-6.716-15-15-15h-65v-10c0-16.569-13.431-30-30-30v245h95c8.284 0 15-6.716 15-15v-57.5h-10c-16.569 0-30-13.431-30-30 0-16.569 13.431-30 30-30z" fill="#00b4bc"/></g></g></svg>